<svg  viewBox="0 0 250 70" preserveAspectRatio="xMidYMid meet" data-v-70b83f88="" version="1.0" xmlns="http://www.w3.org/2000/svg" xmlns:xlink="http://www.w3.org/1999/xlink" width="100%" height="100%" color-interpolation-filters="sRGB" style="margin: auto;">
  <g data-v-70b83f88="" fill="#909090">
    <g class="">
      <g>
        <rect fill="#909090" fill-opacity="0" stroke-width="2" x="0" y="0" width="59.99999999999999" height="69.63949952413007" class="image-rect"></rect>
        <svg x="0" y="0" width="59.99999999999999" height="69.63949952413007" filtersec="colorsb426758961" class="image-svg-svg primary" style="overflow: visible;">
          <svg xmlns="http://www.w3.org/2000/svg" viewBox="-0.012591682374477386 -0.0008466243743896484 89.4620361328125 103.83445739746094">
            <title>LameturyLink</title>
            <path d="M11.86 50a28.07 28.07 0 0 0 1.49 10.28c1 3 1.24 3 3.42.87L74.21 3.78c.71-.7 1.39-1.44 2.16-2.07 2.92-2.39 6.11-2.26 8.48.29 2.22 2.4 2 5.59-.6 8.23Q67.68 26.89 51 43.47L15.33 79.15C13.05 81.44 13 81.37 11 79A43.71 43.71 0 0 1 .05 51.69 42.67 42.67 0 0 1 9.93 22c8.73-10.69 20.22-16.08 33.9-16.51A39.24 39.24 0 0 1 60.65 8.7c1.43.62 1.82 1.31.57 2.53l-6 6c-1.24 1.3-2.63 1.06-4.16.77-11.52-2.11-21.71.57-30 9-6.14 6.26-9.52 13.8-9.2 23z" fill="#f8981c"></path>
            <path d="M89.42 50.54c.69 21.5-16.07 41.34-38.64 44.1a42.62 42.62 0 0 1-16.13-.88c-.86-.23-2-.21-2.32-1.2-.33-1.15 1-1.56 1.53-2.35 3.89-5.83 9.6-6.83 16.21-7.51 18.19-1.86 30.81-20 27.21-38-.14-.71-.09-1.68-.94-1.87s-1.4.76-2 1.32Q46.79 71.7 19.21 99.27c-.88.88-1.74 1.79-2.65 2.65-2.63 2.49-5.8 2.55-8.23.18a5.57 5.57 0 0 1-.11-8.26c4.76-4.9 9.69-9.63 14.53-14.45 3.95-3.93 7.87-7.88 11.81-11.82l15.87-15.91 13.39-13.41c4.59-4.6 9.19-9.17 13.73-13.81 1.64-1.67 2.66-.92 3.77.6 4.38 5.96 8.52 15.79 8.1 25.5z" fill="#00a0da"></path>
          </svg>
        </svg>
      </g>
    </g>
    <g transform="translate(67.00000381469727,22.674752235412598)">
      <g data-gra="path-name" fill-rule="" class="">
        <g>
          <g>
            <path d="M13.03 0L1.84 0 1.84-17.07 6.46-17.07 6.46-3.72 13.03-3.72 13.03 0ZM27.28 0L24.12 0 23.24-1.75 23.15-1.75Q22.23-0.61 21.27-0.19 20.31 0.23 18.8 0.23L18.8 0.23Q16.93 0.23 15.85-0.89 14.78-2.01 14.78-4.04L14.78-4.04Q14.78-6.15 16.25-7.19 17.72-8.22 20.51-8.35L20.51-8.35 22.72-8.42 22.72-8.6Q22.72-10.24 21.11-10.24L21.11-10.24Q19.66-10.24 17.43-9.26L17.43-9.26 16.11-12.27Q18.42-13.46 21.95-13.46L21.95-13.46Q24.49-13.46 25.89-12.2 27.28-10.94 27.28-8.67L27.28-8.67 27.28 0ZM20.73-2.99L20.73-2.99Q21.56-2.99 22.15-3.51 22.74-4.04 22.74-4.88L22.74-4.88 22.74-5.91 21.69-5.86Q19.44-5.78 19.44-4.2L19.44-4.2Q19.44-2.99 20.73-2.99ZM51.19 0L46.63 0 46.63-7.19Q46.63-8.53 46.26-9.21 45.89-9.88 45.1-9.88L45.1-9.88Q44.05-9.88 43.56-8.98 43.07-8.08 43.07-6.16L43.07-6.16 43.07 0 38.49 0 38.49-7.19Q38.49-8.53 38.14-9.21 37.79-9.88 37.01-9.88L37.01-9.88Q35.93-9.88 35.44-8.92 34.95-7.96 34.95-5.79L34.95-5.79 34.95 0 30.39 0 30.39-13.23 33.83-13.23 34.41-11.59 34.67-11.59Q35.2-12.5 36.2-12.98 37.2-13.46 38.47-13.46L38.47-13.46Q41.33-13.46 42.48-11.72L42.48-11.72 42.85-11.72Q43.41-12.54 44.4-13 45.4-13.46 46.61-13.46L46.61-13.46Q48.95-13.46 50.07-12.26 51.19-11.06 51.19-8.6L51.19-8.6 51.19 0ZM60.68 0.23L60.68 0.23Q57.38 0.23 55.55-1.52 53.73-3.28 53.73-6.53L53.73-6.53Q53.73-9.88 55.42-11.67 57.11-13.46 60.25-13.46L60.25-13.46Q63.24-13.46 64.87-11.9 66.5-10.34 66.5-7.41L66.5-7.41 66.5-5.38 58.34-5.38Q58.39-4.27 59.15-3.64 59.91-3.01 61.23-3.01L61.23-3.01Q62.44-3.01 63.45-3.24 64.46-3.47 65.63-4.02L65.63-4.02 65.63-0.74Q64.56-0.19 63.42 0.02 62.27 0.23 60.68 0.23ZM60.42-10.36L60.42-10.36Q59.61-10.36 59.07-9.85 58.53-9.34 58.43-8.25L58.43-8.25 62.35-8.25Q62.33-9.21 61.81-9.78 61.29-10.36 60.42-10.36ZM75.56-3.37L75.56-3.37Q76.48-3.37 77.76-3.83L77.76-3.83 77.76-0.5Q76.84-0.11 76.01 0.06 75.17 0.23 74.05 0.23L74.05 0.23Q71.75 0.23 70.74-0.89 69.72-2.02 69.72-4.35L69.72-4.35 69.72-9.81 68.12-9.81 68.12-11.66 70.15-13.1 71.33-15.88 74.32-15.88 74.32-13.23 77.57-13.23 77.57-9.81 74.32-9.81 74.32-4.66Q74.32-3.37 75.56-3.37ZM92.94 0L89.5 0 88.93-1.65 88.66-1.65Q88.09-0.74 87.06-0.25 86.04 0.23 84.66 0.23L84.66 0.23Q82.48 0.23 81.27-1.03 80.05-2.3 80.05-4.61L80.05-4.61 80.05-13.23 84.62-13.23 84.62-6Q84.62-4.7 84.99-4.04 85.35-3.37 86.19-3.37L86.19-3.37Q87.37-3.37 87.88-4.3 88.38-5.23 88.38-7.44L88.38-7.44 88.38-13.23 92.94-13.23 92.94 0ZM104.08-13.46L104.08-13.46Q104.68-13.46 105.21-13.37L105.21-13.37 105.47-13.32 105.06-9.01Q104.5-9.15 103.51-9.15L103.51-9.15Q102.01-9.15 101.34-8.47 100.66-7.79 100.66-6.5L100.66-6.5 100.66 0 96.09 0 96.09-13.23 99.49-13.23 100.2-11.11 100.43-11.11Q101-12.17 102.02-12.81 103.04-13.46 104.08-13.46ZM110.92-0.19L105.71-13.23 110.52-13.23 112.77-5.64Q112.93-5.04 112.99-4.2L112.99-4.2 113.08-4.2Q113.17-5.01 113.36-5.62L113.36-5.62 115.66-13.23 120.32-13.23 115.09 0.84Q114.08 3.53 112.62 4.63 111.15 5.74 108.8 5.74L108.8 5.74Q107.89 5.74 106.93 5.55L106.93 5.55 106.93 1.96Q107.55 2.1 108.34 2.1L108.34 2.1Q108.95 2.1 109.4 1.87 109.86 1.63 110.2 1.21 110.54 0.78 110.92-0.19L110.92-0.19ZM139.56 0L128.37 0 128.37-17.07 132.99-17.07 132.99-3.72 139.56-3.72 139.56 0ZM146.61-13.23L146.61 0 142.05 0 142.05-13.23 146.61-13.23ZM141.93-16.52L141.93-16.52Q141.93-17.55 142.5-18.05 143.07-18.55 144.35-18.55L144.35-18.55Q145.62-18.55 146.2-18.04 146.79-17.52 146.79-16.52L146.79-16.52Q146.79-14.51 144.35-14.51L144.35-14.51Q141.93-14.51 141.93-16.52ZM162.71 0L158.15 0 158.15-7.21Q158.15-8.53 157.77-9.21 157.39-9.88 156.55-9.88L156.55-9.88Q155.39-9.88 154.88-8.95 154.36-8.03 154.36-5.79L154.36-5.79 154.36 0 149.8 0 149.8-13.23 153.24-13.23 153.81-11.59 154.08-11.59Q154.67-12.53 155.7-12.99 156.73-13.46 158.07-13.46L158.07-13.46Q160.27-13.46 161.49-12.19 162.71-10.92 162.71-8.6L162.71-8.6 162.71 0ZM170.15-7.44L170.24-7.44Q171.07-8.76 171.65-9.49L171.65-9.49 174.62-13.23 179.71-13.23 175.12-7.6 180 0 174.78 0 171.89-4.74 170.4-3.61 170.4 0 165.82 0 165.82-18.17 170.4-18.17 170.4-11.02Q170.4-9.19 170.15-7.44L170.15-7.44Z" transform="translate(-1.840000033378601, 18.549999237060547)"></path>
          </g>
        </g>
      </g>

    </g>
  </g>
</svg>